<svg width="44" height="44" viewBox="0 0 44 44" fill="none" xmlns="http://www.w3.org/2000/svg">
<rect width="44" height="44" rx="22" fill="#FFF1E7"/>
<g clip-path="url(#clip0_325_2093)">
<path d="M25.75 22C25.75 22.8672 25.7031 23.7031 25.6211 24.5H18.3789C18.293 23.7031 18.25 22.8672 18.25 22C18.25 21.1328 18.2969 20.2969 18.3789 19.5H25.6211C25.707 20.2969 25.75 21.1328 25.75 22ZM26.875 19.5H31.6836C31.8906 20.3008 32 21.1367 32 22C32 22.8633 31.8906 23.6992 31.6836 24.5H26.875C26.957 23.6953 27 22.8594 27 22C27 21.1406 26.957 20.3047 26.875 19.5ZM31.2734 18.25H26.7148C26.3242 15.7539 25.5508 13.6641 24.5547 12.3281C27.6133 13.1367 30.1016 15.3555 31.2695 18.25H31.2734ZM25.4492 18.25H18.5508C18.7891 16.8281 19.1562 15.5703 19.6055 14.5508C20.0156 13.6289 20.4727 12.9609 20.9141 12.5391C21.3516 12.125 21.7148 12 22 12C22.2852 12 22.6484 12.125 23.0859 12.5391C23.5273 12.9609 23.9844 13.6289 24.3945 14.5508C24.8477 15.5664 25.2109 16.8242 25.4492 18.25ZM17.2852 18.25H12.7266C13.8984 15.3555 16.3828 13.1367 19.4453 12.3281C18.4492 13.6641 17.6758 15.7539 17.2852 18.25ZM12.3164 19.5H17.125C17.043 20.3047 17 21.1406 17 22C17 22.8594 17.043 23.6953 17.125 24.5H12.3164C12.1094 23.6992 12 22.8633 12 22C12 21.1367 12.1094 20.3008 12.3164 19.5ZM19.6055 29.4453C19.1523 28.4297 18.7891 27.1719 18.5508 25.75H25.4492C25.2109 27.1719 24.8438 28.4297 24.3945 29.4453C23.9844 30.3672 23.5273 31.0352 23.0859 31.457C22.6484 31.875 22.2852 32 22 32C21.7148 32 21.3516 31.875 20.9141 31.4609C20.4727 31.0391 20.0156 30.3711 19.6055 29.4492V29.4453ZM17.2852 25.75C17.6758 28.2461 18.4492 30.3359 19.4453 31.6719C16.3828 30.8633 13.8984 28.6445 12.7266 25.75H17.2852ZM31.2734 25.75C30.1016 28.6445 27.6172 30.8633 24.5586 31.6719C25.5547 30.3359 26.3242 28.2461 26.7188 25.75H31.2734Z" fill="#F0532D"/>
</g>
<defs>
<clipPath id="clip0_325_2093">
<rect width="20" height="20" fill="white" transform="translate(12 12)"/>
</clipPath>
</defs>
</svg>
