<svg width="44" height="44" viewBox="0 0 44 44" fill="none" xmlns="http://www.w3.org/2000/svg">
<rect width="44" height="44" rx="22" fill="#FFF1E7"/>
<path d="M32 22C32 27.523 27.523 32 22 32C16.477 32 12 27.523 12 22C12 16.477 16.477 12 22 12C27.523 12 32 16.477 32 22ZM22.358 19.382C21.386 19.7867 19.4423 20.6243 16.527 21.895C16.053 22.083 15.805 22.267 15.783 22.447C15.745 22.751 16.126 22.871 16.645 23.034L16.863 23.104C17.373 23.27 18.061 23.464 18.418 23.472C18.742 23.4787 19.1033 23.3453 19.502 23.072C22.226 21.232 23.632 20.3023 23.72 20.283C23.783 20.269 23.869 20.251 23.927 20.303C23.986 20.355 23.98 20.453 23.974 20.48C23.936 20.641 22.44 22.032 21.666 22.751C21.4367 22.967 21.209 23.1847 20.983 23.404C20.509 23.861 20.153 24.204 21.003 24.764C21.864 25.332 22.733 25.898 23.573 26.497C23.987 26.793 24.359 27.057 24.819 27.016C25.086 26.991 25.362 26.74 25.502 25.99C25.834 24.22 26.485 20.382 26.635 18.8C26.6437 18.6688 26.638 18.537 26.618 18.407C26.6062 18.3024 26.5555 18.206 26.476 18.137C26.356 18.039 26.171 18.019 26.089 18.02C25.713 18.027 25.136 18.227 22.359 19.382" fill="#F0532D"/>
</svg>
