<svg width="395" height="77" viewBox="0 0 395 77" fill="none" xmlns="http://www.w3.org/2000/svg">
<g clip-path="url(#clip0_325_2155)">
<path d="M209.111 11C209.111 17.6717 203.812 22 197.499 22C191.186 22 185.887 17.6717 185.887 11C185.887 4.32829 191.186 0 197.499 0C203.812 0 209.111 4.43714 209.111 11Z" fill="white"/>
<path d="M228.997 11.045V11.077C228.997 12.1718 228.877 13.2731 228.598 14.3296C228.339 15.3092 227.94 16.244 227.395 17.0956C226.857 17.928 226.18 18.6643 225.414 19.2725C224.584 19.932 223.647 20.4443 222.672 20.8348C221.45 21.3214 220.165 21.616 218.86 21.7952C218.05 21.9041 217.227 21.9681 216.41 21.9873C215.998 21.9937 215.581 21.9873 215.169 21.9745C215.074 21.9745 214.96 21.9681 214.859 21.9489C214.631 21.9105 214.422 21.8081 214.422 21.5263V0.595593C214.422 0.31387 214.631 0.211425 214.859 0.173009C214.966 0.1538 215.074 0.147398 215.169 0.147398C215.581 0.128189 215.998 0.121786 216.41 0.134592C217.233 0.1538 218.05 0.217828 218.86 0.326676C220.158 0.505954 221.444 0.800482 222.672 1.28709C223.647 1.67767 224.584 2.18989 225.414 2.84938C226.186 3.45764 226.857 4.19396 227.395 5.02633C227.94 5.8779 228.339 6.81271 228.598 7.79233C228.877 8.8552 228.997 9.95008 228.997 11.045Z" fill="white"/>
<path d="M166 11.0767V11.0447C166 9.94983 166.12 8.84855 166.399 7.79209C166.658 6.81246 167.057 5.87765 167.602 5.02608C168.14 4.19372 168.818 3.4574 169.584 2.84913C170.413 2.18964 171.35 1.67742 172.325 1.28685C173.547 0.800238 174.833 0.50571 176.137 0.326432C176.947 0.217584 177.771 0.153556 178.587 0.134348C178.999 0.127945 179.417 0.134348 179.828 0.147153C179.923 0.147153 180.037 0.153556 180.139 0.172765C180.367 0.211181 180.575 0.313626 180.575 0.595349V21.5261C180.575 21.8078 180.367 21.9102 180.139 21.9487C180.031 21.9679 179.923 21.9743 179.828 21.9743C179.417 21.9935 178.999 21.9999 178.587 21.9871C177.764 21.9679 176.947 21.9038 176.137 21.795C174.839 21.6157 173.554 21.3212 172.325 20.8346C171.35 20.444 170.413 19.9318 169.584 19.2723C168.811 18.664 168.14 17.9277 167.602 17.0953C167.057 16.2438 166.658 15.309 166.399 14.3293C166.12 13.2729 166 12.1716 166 11.0767Z" fill="white"/>
</g>
<g clip-path="url(#clip1_325_2155)">
<path d="M88.5078 65.9746C88.2539 65.9746 88 65.7205 88 65.4663V41.0498C88 40.7956 88.2539 40.5415 88.5078 40.5415H99.2313C107.279 40.5415 113.295 45.5069 113.295 53.2678C113.295 61.0287 108.216 65.9941 99.3094 65.9941H88.5078V65.9746ZM93.7621 45.3896V61.1656H99.3094C104.681 61.1656 107.533 58.1159 107.533 53.2874C107.533 48.4588 104.056 45.4092 99.2313 45.4092H93.7621V45.3896Z" fill="white"/>
<path d="M136.673 57.2948C136.673 63.1399 132.103 66.4046 126.673 66.4046C121.243 66.4046 116.672 63.1399 116.672 57.2948C116.672 51.4497 121.243 48.1851 126.673 48.1851C132.103 48.1851 136.673 51.4497 136.673 57.2948ZM126.673 52.7595C123.958 52.7595 122.102 54.6753 122.102 57.2948C122.102 59.9144 123.958 61.8302 126.673 61.8302C129.388 61.8302 131.243 59.973 131.243 57.2948C131.243 54.6166 129.388 52.7595 126.673 52.7595Z" fill="white"/>
<path d="M145.817 49.9639H146.032C147.34 48.8105 149.333 48.185 151.247 48.185C156.423 48.185 159.548 51.997 159.548 57.2556C159.548 62.5143 155.778 66.4045 150.993 66.4045C146.207 66.4045 147.106 65.7594 145.485 64.5474H145.407L144.977 65.3489C144.723 65.818 144.43 65.994 144.137 65.994H141.129C140.875 65.994 140.406 65.5248 140.406 65.2707V38.7233C140.406 38.4692 140.875 38 141.129 38H145.114C145.368 38 145.836 38.4692 145.836 38.7233V49.9639H145.817ZM150.094 52.7594C148.102 52.7594 146.461 54.0301 145.817 55.6917V60.2271C146.832 61.2045 148.141 61.791 149.958 61.791C151.774 61.791 154.099 60.188 154.099 57.2556C154.099 54.3233 152.497 52.7594 150.075 52.7594H150.094Z" fill="white"/>
<path d="M176.149 64.2347C174.411 65.5445 172.165 66.4046 169.547 66.4046C165.152 66.4046 163.023 63.9415 163.023 61.0287C163.023 58.1159 165.094 55.731 170.387 55.731C175.681 55.731 175.856 56.0242 175.856 56.0242L175.935 55.9851V55.5159C175.935 53.737 174.782 52.5054 172.048 52.5054C169.313 52.5054 169.176 53.1896 169.118 54.2843V54.3625C169.079 54.6167 168.727 54.734 168.395 54.734H164.41C164.156 54.734 163.688 54.2648 163.688 54.0107V53.8347C163.688 50.7069 166.11 48.146 172.067 48.146C178.025 48.146 181.345 51.6257 181.345 56.1219V65.2317C181.345 65.4858 180.876 65.955 180.622 65.955H177.497C177.204 65.955 176.95 65.7791 176.774 65.4076L176.267 64.2152H176.13L176.149 64.2347ZM175.935 60.7746V59.4648H170.817C168.961 59.4648 168.454 60.149 168.454 60.9114C168.454 61.6738 169.039 62.2603 170.485 62.2603C171.93 62.2603 174.763 61.5761 175.954 60.7746H175.935Z" fill="white"/>
<path d="M195.293 65.9746C195.039 65.9746 194.785 65.7205 194.785 65.4663V41.0498C194.785 40.7956 195.039 40.5415 195.293 40.5415H206.016C214.064 40.5415 220.08 45.5069 220.08 53.2678C220.08 61.0287 215.001 65.9941 206.095 65.9941H195.293V65.9746ZM200.547 45.3701V61.146H206.095C211.466 61.146 214.318 58.0964 214.318 53.2678C214.318 48.4392 210.841 45.3896 206.016 45.3896H200.547V45.3701Z" fill="white"/>
<path d="M226.528 40.1113C228.442 40.1113 229.653 41.3429 229.653 42.8286C229.653 44.3143 228.422 45.5459 226.528 45.5459C224.633 45.5459 223.402 44.3143 223.402 42.8286C223.402 41.3429 224.633 40.1113 226.528 40.1113ZM229.223 65.2512C229.223 65.5053 228.754 65.9745 228.5 65.9745H224.516C224.262 65.9745 223.793 65.5053 223.793 65.2512V49.3188C223.793 49.0647 224.262 48.5955 224.516 48.5955H228.5C228.754 48.5955 229.223 49.0647 229.223 49.3188V65.2512Z" fill="white"/>
<path d="M234.77 67.343V67.2648C233.5 66.4242 232.855 65.1535 232.855 63.5309C232.855 61.9084 233.832 60.3445 234.887 59.4257C233.988 58.2723 233.539 56.8843 233.539 55.2227C233.539 51.4106 236.508 48.1851 241.469 48.1851C246.431 48.1851 245.239 48.7324 246.724 49.8858H246.86C247.798 48.8693 248.814 48.1851 250.708 48.1851C252.603 48.1851 251.646 48.4392 251.646 48.6933V52.1339C251.646 52.349 251.392 52.564 251.177 52.564C250.962 52.564 250.845 52.5249 250.454 52.5249C249.907 52.5249 249.4 52.6422 248.97 52.9941C249.224 53.7565 249.361 54.4798 249.361 55.2422C249.361 59.2693 246.489 62.2798 241.489 62.2798C236.489 62.2798 239.028 62.0257 238.012 61.5956C237.758 61.8888 237.465 62.4362 237.465 63.0031C237.465 63.8046 238.051 64.3129 239.575 64.3129H244.067C249.068 64.3129 251.353 67.1475 251.353 70.158C251.353 73.1685 248.677 77.0196 242.114 77.0196H241.938C236.254 77.0196 233.051 74.4001 233.051 71.2136C233.051 68.0272 233.813 68.3399 234.789 67.3625L234.77 67.343ZM239.516 68.4377C238.969 68.77 238.461 69.4542 238.461 70.3535C238.461 71.6633 239.809 72.6798 241.84 72.6798H242.27C244.849 72.6798 245.903 71.5264 245.903 70.2557C245.903 68.9851 245.356 68.4377 243.403 68.4377H239.516ZM241.43 57.9204C243.169 57.9204 244.36 56.6888 244.36 55.2031C244.36 53.7174 243.169 52.4858 241.43 52.4858C239.692 52.4858 238.559 53.7174 238.559 55.2031C238.559 56.6888 239.711 57.9204 241.43 57.9204Z" fill="white"/>
<path d="M256.84 40.1113C258.754 40.1113 259.965 41.3429 259.965 42.8286C259.965 44.3143 258.735 45.5459 256.84 45.5459C254.945 45.5459 253.715 44.3143 253.715 42.8286C253.715 41.3429 254.945 40.1113 256.84 40.1113ZM259.555 65.2512C259.555 65.5053 259.086 65.9745 258.832 65.9745H254.848C254.594 65.9745 254.125 65.5053 254.125 65.2512V49.3188C254.125 49.0647 254.594 48.5955 254.848 48.5955H258.832C259.086 48.5955 259.555 49.0647 259.555 49.3188V65.2512Z" fill="white"/>
<path d="M262.602 53.1699C262.348 53.1699 262.016 52.8376 262.016 52.5835V49.2015C262.016 48.9474 262.348 48.6151 262.602 48.6151H264.555V44.6662C264.555 44.412 265.024 43.9429 265.278 43.9429H269.262C269.516 43.9429 269.985 44.412 269.985 44.6662V48.6151H275.415C275.669 48.6151 276.001 48.9474 276.001 49.2015V52.5835C276.001 52.8376 275.669 53.1699 275.415 53.1699H269.985V59.1128C269.985 61.1459 271.001 61.8301 272.524 61.8301C274.048 61.8301 274.438 61.3609 275.063 61.0286C275.493 60.8135 275.864 61.0286 276.001 61.3609L276.724 63.4722C276.802 63.7654 276.899 64.0587 276.899 64.2346C276.899 64.5278 276.685 64.8211 276.314 65.0752C275.415 65.6617 273.598 66.385 271.606 66.385C267.504 66.385 264.574 64.1369 264.574 59.5624V53.1699H262.621H262.602Z" fill="white"/>
<path d="M292.466 64.2347C290.727 65.5445 288.481 66.4046 285.864 66.4046C281.469 66.4046 279.34 63.9415 279.34 61.0287C279.34 58.1159 281.41 55.731 286.704 55.731C291.997 55.731 292.173 56.0242 292.173 56.0242L292.251 55.9851V55.5159C292.251 53.737 291.099 52.5054 288.364 52.5054C285.629 52.5054 285.493 53.1896 285.434 54.2843V54.3625C285.395 54.6167 285.043 54.734 284.711 54.734H280.727C280.473 54.734 280.004 54.2648 280.004 54.0107V53.8347C280.004 50.7069 282.426 48.146 288.383 48.146C294.341 48.146 297.661 51.6257 297.661 56.1219V65.2317C297.661 65.4858 297.193 65.955 296.939 65.955H293.814C293.521 65.955 293.267 65.7791 293.091 65.4076L292.583 64.2152H292.446L292.466 64.2347ZM292.251 60.755V59.4452H287.133C285.278 59.4452 284.77 60.1295 284.77 60.8919C284.77 61.6543 285.356 62.2407 286.801 62.2407C288.247 62.2407 291.079 61.5565 292.27 60.755H292.251Z" fill="white"/>
<path d="M307 65.2511C307 65.5053 306.532 65.9744 306.278 65.9744H302.293C302.039 65.9744 301.57 65.5053 301.57 65.2511V38.7233C301.57 38.4692 302.039 38 302.293 38H306.278C306.532 38 307 38.4692 307 38.7233V65.2511Z" fill="white"/>
</g>
<defs>
<clipPath id="clip0_325_2155">
<rect width="63" height="22" fill="white" transform="translate(166)"/>
</clipPath>
<clipPath id="clip1_325_2155">
<rect width="219" height="39" fill="white" transform="translate(88 38)"/>
</clipPath>
</defs>
</svg>
